<?xml version="1.0" encoding="utf-8"?>
<!-- Generator: Adobe Illustrator 24.1.2, SVG Export Plug-In . SVG Version: 6.00 Build 0)  -->
<svg version="1.1" id="Camada_1" xmlns="http://www.w3.org/2000/svg" xmlns:xlink="http://www.w3.org/1999/xlink" x="0px" y="0px"
	 viewBox="0 0 379 391" style="enable-background:new 0 0 379 391;" xml:space="preserve">
<style type="text/css">
	.st0{fill-rule:evenodd;clip-rule:evenodd;}
</style>
<g>
	<path d="M158,309c21,0,39,17,39,39c0,21-18,39-39,39c-22,0-39-18-39-39C119,326,136,309,158,309z M158,329c-11,0-19,8-19,19
		c0,10,8,19,19,19c10,0,19-9,19-19C177,337,168,329,158,329z"/>
	<path d="M290,309c22,0,39,17,39,39c0,21-17,39-39,39c-21,0-39-18-39-39C251,326,269,309,290,309z M290,329c-10,0-19,8-19,19
		c0,10,9,19,19,19c11,0,19-9,19-19C309,337,301,329,290,329z"/>
	<path class="st0" d="M116,247h201c16,0,29-10,33-26l28-112c4-16-8-31-25-31H92l-6-42C83,15,65,0,45,0H10C-3,0-3,20,10,20h35
		c11,0,20,8,21,18l32,222c3,21,20,36,41,36h191c13,0,13-20,0-20H139c-11,0-20-8-21-19L116,247z"/>
</g>
</svg>
